<?xml version="1.0" encoding="UTF-8" standalone="no"?>
<!-- Generator: Adobe Illustrator 22.0.1, SVG Export Plug-In . SVG Version: 6.00 Build 0)  -->

<svg
   xmlns:dc="http://purl.org/dc/elements/1.1/"
   xmlns:cc="http://creativecommons.org/ns#"
   xmlns:rdf="http://www.w3.org/1999/02/22-rdf-syntax-ns#"
   xmlns:svg="http://www.w3.org/2000/svg"
   xmlns="http://www.w3.org/2000/svg"
   xmlns:sodipodi="http://sodipodi.sourceforge.net/DTD/sodipodi-0.dtd"
   xmlns:inkscape="http://www.inkscape.org/namespaces/inkscape"
   version="1.1"
   id="Layer_1"
   x="0px"
   y="0px"
   viewBox="0 0 841.9 595.3"
   style="enable-background:new 0 0 841.9 595.3;"
   xml:space="preserve"
   sodipodi:docname="Blowdry-1.svg"
   inkscape:version="0.92.3 (2405546, 2018-03-11)"><metadata
   id="metadata90"><rdf:RDF><cc:Work
       rdf:about=""><dc:format>image/svg+xml</dc:format><dc:type
         rdf:resource="http://purl.org/dc/dcmitype/StillImage" /><dc:title></dc:title></cc:Work></rdf:RDF></metadata><defs
   id="defs88" /><sodipodi:namedview
   pagecolor="#ffffff"
   bordercolor="#666666"
   borderopacity="1"
   objecttolerance="10"
   gridtolerance="10"
   guidetolerance="10"
   inkscape:pageopacity="0"
   inkscape:pageshadow="2"
   inkscape:window-width="1920"
   inkscape:window-height="1017"
   id="namedview86"
   showgrid="false"
   inkscape:zoom="1.4244919"
   inkscape:cx="420.95001"
   inkscape:cy="297.64999"
   inkscape:window-x="-8"
   inkscape:window-y="-8"
   inkscape:window-maximized="1"
   inkscape:current-layer="Layer_1" />
<style
   type="text/css"
   id="style51">
	.st0{font-family:'GillSans-Light';}
	.st1{font-size:34.2542px;}
	.st2{letter-spacing:10;}
	.st3{letter-spacing:8;}
	.st4{fill:#BABCBE;}
	.st5{fill:#FFFFFF;}
</style>

<g
   id="g83">
	<g
   id="g73">
		<g
   id="g71">
			<path
   class="st4"
   d="M473.2,275.6c-4.4-1.1-9.2,0.6-12.7,4.6c-9.9,10.9-22,10.4-22.1,10.4l-0.2,3.1c0.6,0,13.6,0.7,24.5-11.4     c2.8-3.1,6.4-4.5,9.7-3.6c2.7,0.7,4.8,2.7,5.4,5.3c0.9,3.5-0.7,7.7-4.4,11.6c-0.8,0.5-1.7,1.2-2.4,2.1l-0.1-0.1l-0.1,0.1l0.1,0.1     c0,0,0,0,0,0l0,0l0,0l-0.1-0.1l-0.1,0.1l0.1,0.1l0,0.1l-0.2-0.1l-0.1,0.1l0.2,0.1l-0.1,0.1l-0.2-0.2l-0.1,0.1l0.2,0.2l0,0.1     l-0.2-0.2l-0.1,0.1l0.2,0.2l-0.1,0.1l-0.3-0.2l-0.1,0.1l0.3,0.2l0,0.1l-0.3-0.2l-1.7,1.6c-0.3,0.1-0.5,0.2-1,0.3     c-0.9,0.2-1.9,0.5-2.4,1.2l-1,1.3c-0.2-0.1-0.4-0.1-0.6,0.1l-0.9,1.2l0.3,0.3l1.5,1.2l-2.1,2.7c-0.1,0.2-0.1,0.4,0.1,0.5     c0.2,0.1,0.4,0.1,0.5-0.1l2.1-2.7l2.7,2.1l-2.1,2.7c-0.1,0.2-0.1,0.4,0.1,0.5c0.2,0.1,0.4,0.1,0.5-0.1l2.1-2.7l1.5,1.1l0.3,0.3     l0.9-1.2c0.1-0.2,0.1-0.4-0.1-0.6l1-1.3c0.6-0.8,0.7-1.8,0.6-2.7c0-0.5,0.1-0.8,0.1-1.1l1.1-2.1l-0.3-0.2l0.1-0.1l0.3,0.2     l0.1-0.1l-0.3-0.2l0-0.1l0.2,0.2l0.1-0.1l-0.2-0.2l0.1-0.1l0.2,0.2l0.1-0.1l-0.2-0.2l0-0.1l0.2,0.1l0.1-0.1l-0.2-0.1l0-0.1     l0.1,0.1l0.1-0.1l-0.1-0.1l0-0.1l0.1,0.1l0.1-0.1l-0.1-0.1l0.2-0.2l0,0c0.4-0.5,0.8-1,1.1-1.4c6.5-6.6,6.4-12.2,5.6-15     C479.9,279.4,477,276.5,473.2,275.6z"
   id="path69" />
		</g>
	</g>
	
		<rect
   x="406"
   y="289.4"
   transform="matrix(0.9569 -0.2904 0.2904 0.9569 -67.7882 136.3538)"
   class="st4"
   width="39.2"
   height="14.3"
   id="rect75" />
	<path
   class="st4"
   d="M420.5,280.9c5.3,9,2.4,20.7-6.6,26c-9,5.3-20.7,2.4-26-6.6c-5.3-9-2.4-20.7,6.6-26   C403.5,269,415.1,271.9,420.5,280.9z"
   id="path77" />
	
		<rect
   x="377.2"
   y="260.2"
   transform="matrix(0.8601 -0.5102 0.5102 0.8601 -89.1877 235.5508)"
   class="st4"
   width="15.1"
   height="40.4"
   id="rect79" />
	<path
   class="st5"
   d="M415,283.7c-2.1-3.5-5.2-5.7-8.7-6.4c-3-0.6-6.2-0.1-9.3,1.7c0,0,0,0-0.1,0c0,0,0,0,0,0   c-0.1,0-0.1,0.1-0.2,0.1c-0.2,0.1-0.3,0.2-0.5,0.3c-2.6,1.7-4.3,4-5.2,6.7L379,266l-3.9,2.3l17.5,29.6c0.1,0.1,0.2,0.2,0.3,0.3   c3.9,5.6,10.4,7.2,16.4,4.2c0.3-0.2,0.6-0.3,1-0.5c0,0,0,0,0,0c0,0,0,0,0,0c0.8-0.5,1.6-1,2.2-1.6c0.9-0.8,1.6-1.6,2.2-2.5   C417.5,293.7,417.8,288.4,415,283.7z M408.3,298.3c-4.3,2.6-9.3,1.1-12-3.4c-2.7-4.6-1.7-9.6,2.7-12.2c0.5-0.3,1-0.5,1.6-0.7   c3.9-1.3,7.9,0.4,10.3,4.3c2.3,3.9,1.9,8.3-1.1,11C409.3,297.6,408.8,298,408.3,298.3z"
   id="path81" />
</g>
</svg>